<?xml version="1.0" encoding="utf-8"?>
<!-- Generator: Adobe Illustrator 25.0.0, SVG Export Plug-In . SVG Version: 6.00 Build 0)  -->
<svg version="1.1" id="Layer_1" xmlns="http://www.w3.org/2000/svg" xmlns:xlink="http://www.w3.org/1999/xlink" x="0px" y="0px"
	 viewBox="0 0 300 300" style="enable-background:new 0 0 300 300;" xml:space="preserve">
<style type="text/css">
	.st0{fill:#CD8F33;}
	.st1{fill:#B9812E;}
	.st2{fill:#C8AB84;}
	.st3{fill:#DDC59C;}
	.st4{fill:#333333;}
	.st5{fill:#7ECCBE;}
</style>
<g>
	<polygon class="st0" points="212.35,285.66 194.85,292 98.93,292 98.93,287.23 102.06,279.13 111.17,277.05 119.78,279.4 
		140.64,274.46 112.74,258.28 110.92,248.4 115.61,237.7 110.67,233.55 100.33,224.89 97.58,257.16 90.45,276.8 92.7,278.19 
		89.57,279.93 89.57,283.22 87.15,283.22 85.06,292 53.41,292 52.79,289.56 56.19,282.8 58.79,282.8 66.34,280.72 74.68,254.38 
		72.35,193.14 61.51,173.46 58.63,153.36 64,142.82 65.82,120.93 76.77,107.89 73.91,100.59 69.99,101.89 68.7,97.72 64.26,97.72 
		69.38,78.78 69.22,77.52 49.57,75.66 38.46,66.11 38.81,63.31 32.21,50.99 32.21,41.17 37.25,40.94 58.79,39.96 70.61,30.66 
		81.21,30.66 79.81,25.28 92.59,3.55 95.8,6.4 95.47,10.78 100.08,6.57 102.62,12.56 100.93,31.6 105.54,34.56 109.09,43.5 
		113.78,50.3 114.3,61.77 123.41,79.26 123.62,79.68 123.7,79.85 127.69,88.31 127.71,88.35 131.25,103.47 151.58,123.28 
		164.28,153.49 177.27,199.12 198.91,216.85 211.16,239.26 210.81,267.67 	"/>
	<polygon class="st1" points="272.44,278.8 272.44,292 194.85,292 212.35,285.66 210.81,267.67 227.24,262.7 246.17,268.35 
		254.93,266.37 	"/>
	<polygon class="st2" points="102.6,12.56 100.93,31.6 94.24,27.26 95.47,10.78 100.08,6.57 	"/>
	<polygon class="st3" points="173.5,234.05 139.09,221.79 125.54,225.19 115.61,237.7 110.67,233.55 124.77,220.25 142.74,216.85 	
		"/>
	<polygon class="st3" points="97.57,257.16 90.44,276.8 92.7,278.19 89.57,279.93 89.57,283.22 87.15,283.22 85.06,292 79.21,292 
		92.59,256.2 96.33,221.54 100.33,224.89 	"/>
	<polygon class="st4" points="39.89,42.07 36.62,49.59 33.64,51.03 33.64,42.3 	"/>
	<polygon class="st3" points="96.33,221.54 103.51,208.25 105.33,190.26 107.68,209.55 100.33,224.89 	"/>
	<polygon class="st3" points="212.35,285.66 194.85,292 137.95,292 174.44,288.52 192.68,275.76 191.52,272.88 193.48,272.88 
		193.48,269.75 198.17,270.67 207.68,239.91 192.83,222.71 175.75,204.73 174.84,204.73 174.19,202.77 172.35,202.77 173.5,199.12 
		155.55,152.73 142.08,124.32 119.31,103.97 117.74,107.1 116.45,100.59 113.86,100.59 113.68,99.18 117.74,92.63 112.92,83.35 
		111.63,82.97 107.84,81.83 102.6,79.49 106.54,76.87 103.67,73.49 109.42,73.49 109.42,53.93 107.67,51.53 105.54,34.56 
		109.09,43.5 113.78,50.3 114.3,61.77 123.41,79.26 123.62,79.68 123.71,79.85 127.69,88.31 127.71,88.35 131.25,103.47 
		151.58,123.28 164.26,153.5 177.27,199.12 198.9,216.85 211.16,239.26 210.81,267.67 	"/>
	<polygon class="st5" points="130.16,87.88 74.58,109.2 71.46,101.23 125.47,77.96 125.7,78.41 125.83,78.67 130.13,87.83 	"/>
	<path class="st4" d="M75.67,42.07c0,1.67-1.35,3.02-3.02,3.02c-1.67,0-3.02-1.35-3.02-3.02c0-1.67,1.35-3.02,3.02-3.02
		C74.32,39.05,75.67,40.4,75.67,42.07z"/>
</g>
</svg>
