<?xml version="1.0" encoding="utf-8"?>
<!-- Generator: Adobe Illustrator 25.0.0, SVG Export Plug-In . SVG Version: 6.00 Build 0)  -->
<svg version="1.1" id="Layer_1" xmlns="http://www.w3.org/2000/svg" xmlns:xlink="http://www.w3.org/1999/xlink" x="0px" y="0px"
	 viewBox="0 0 300 300" style="enable-background:new 0 0 300 300;" xml:space="preserve">
<style type="text/css">
	.st0{display:none;}
	.st1{display:inline;fill:#CD8F33;}
	.st2{display:inline;fill:#B9812E;}
	.st3{display:inline;fill:#C8AB84;}
	.st4{display:inline;fill:#DDC59C;}
	.st5{display:inline;fill:#333333;}
	.st6{display:inline;fill:#7ECCBE;}
	.st7{display:inline;}
	.st8{fill:#869D79;}
	.st9{fill:#ECDAC8;}
	.st10{fill:#DA5C46;}
	.st11{display:inline;opacity:0.53;fill:#BE894A;}
	.st12{display:inline;fill:#191815;}
	.st13{display:inline;fill:#302D28;}
	.st14{display:inline;fill:#EDDFC3;}
	.st15{display:inline;fill:#E3B80E;}
	.st16{display:inline;fill:#FFE610;}
	.st17{display:inline;fill:#C4E1E8;}
	.st18{display:inline;fill:#CCDADE;}
	.st19{fill:#F4D8B1;}
	.st20{display:inline;fill:#CC851A;}
	.st21{display:inline;fill:#B57617;}
	.st22{display:inline;fill:#FEA621;}
	.st23{display:inline;fill:#E7971E;}
	.st24{display:inline;fill:#E2C8C2;}
	.st25{display:inline;fill:#B5E3DF;}
	.st26{display:inline;fill:#9EC5C2;}
	.st27{fill:#CCCCCC;}
	.st28{fill:#F0F9FC;}
	.st29{fill:#CC281C;}
	.st30{fill:#D3D4DC;}
	.st31{fill:#916E43;}
	.st32{fill:#544027;}
	.st33{fill:#80C41C;}
</style>
<g class="st0">
	<polygon class="st1" points="191.35,289.66 173.85,296 77.93,296 77.93,291.23 81.06,283.13 90.17,281.05 98.78,283.4 
		119.64,278.46 91.74,262.28 89.92,252.4 94.61,241.7 89.67,237.55 79.33,228.89 76.58,261.16 69.45,280.8 71.7,282.19 
		68.57,283.93 68.57,287.22 66.15,287.22 64.06,296 32.41,296 31.79,293.56 35.19,286.8 37.79,286.8 45.34,284.72 53.68,258.38 
		51.35,197.14 40.51,177.46 37.63,157.36 43,146.82 44.82,124.93 55.77,111.89 52.91,104.59 48.99,105.89 47.7,101.72 43.26,101.72 
		48.38,82.78 48.22,81.52 28.57,79.66 17.46,70.11 17.81,67.31 11.21,54.99 11.21,45.17 16.25,44.94 37.79,43.96 49.61,34.66 
		60.21,34.66 58.81,29.28 71.59,7.55 74.8,10.4 74.47,14.78 79.08,10.57 81.62,16.56 79.93,35.6 84.54,38.56 88.09,47.5 92.78,54.3 
		93.3,65.77 102.41,83.26 102.62,83.68 102.7,83.85 106.69,92.31 106.71,92.35 110.25,107.47 130.58,127.28 143.28,157.49 
		156.27,203.12 177.91,220.85 190.16,243.26 189.81,271.67 	"/>
	<polygon class="st2" points="251.44,282.8 251.44,296 173.85,296 191.35,289.66 189.81,271.67 206.24,266.7 225.17,272.35 
		233.93,270.37 	"/>
	<polygon class="st3" points="81.6,16.56 79.93,35.6 73.24,31.26 74.47,14.78 79.08,10.57 	"/>
	<polygon class="st4" points="152.5,238.05 118.09,225.79 104.54,229.19 94.61,241.7 89.67,237.55 103.77,224.25 121.74,220.85 	"/>
	<polygon class="st4" points="76.57,261.16 69.44,280.8 71.7,282.19 68.57,283.93 68.57,287.22 66.15,287.22 64.06,296 58.21,296 
		71.59,260.2 75.33,225.54 79.33,228.89 	"/>
	<polygon class="st5" points="18.89,46.07 15.62,53.59 12.64,55.03 12.64,46.3 	"/>
	<polygon class="st4" points="75.33,225.54 82.51,212.25 84.33,194.26 86.68,213.55 79.33,228.89 	"/>
	<polygon class="st4" points="191.35,289.66 173.85,296 116.95,296 153.44,292.52 171.68,279.76 170.52,276.88 172.48,276.88 
		172.48,273.75 177.17,274.67 186.68,243.91 171.83,226.71 154.75,208.73 153.84,208.73 153.19,206.77 151.35,206.77 152.5,203.12 
		134.55,156.73 121.08,128.32 98.31,107.97 96.74,111.1 95.45,104.59 92.86,104.59 92.68,103.18 96.74,96.63 91.92,87.35 
		90.63,86.97 86.84,85.83 81.6,83.49 85.54,80.87 82.67,77.49 88.42,77.49 88.42,57.93 86.67,55.53 84.54,38.56 88.09,47.5 
		92.78,54.3 93.3,65.77 102.41,83.26 102.62,83.68 102.71,83.85 106.69,92.31 106.71,92.35 110.25,107.47 130.58,127.28 
		143.26,157.5 156.27,203.12 177.9,220.85 190.16,243.26 189.81,271.67 	"/>
	<polygon class="st6" points="109.16,91.88 53.58,113.2 50.46,105.23 104.47,81.96 104.7,82.41 104.83,82.67 109.13,91.83 	"/>
	<path class="st5" d="M54.67,46.07c0,1.67-1.35,3.02-3.02,3.02c-1.67,0-3.02-1.35-3.02-3.02c0-1.67,1.35-3.02,3.02-3.02
		C53.32,43.05,54.67,44.4,54.67,46.07z"/>
</g>
<g class="st0">
	<g class="st7">
		<path class="st8" d="M264.2,131.28c4.46-9.42,4.68-20.72-0.45-30.71c-8.75-17.05-29.67-23.78-46.73-15.03
			c-15.97,8.2-22.89,27.07-16.51,43.44L80.93,190.35c-9.58-14.73-28.94-20.12-44.92-11.92c-17.05,8.75-23.78,29.67-15.03,46.72
			c5.12,9.99,14.43,16.4,24.69,18.27c-4.46,9.42-4.68,20.72,0.45,30.71c8.75,17.06,29.67,23.79,46.72,15.03
			c15.42-7.91,22.36-25.76,17.09-41.72l120.07-61.61c9.89,13.59,28.44,18.36,43.86,10.45c17.05-8.75,23.79-29.67,15.03-46.72
			C283.76,139.56,274.45,133.15,264.2,131.28z"/>
		<path class="st9" d="M262.91,138.33l-9.2-1.65l4.01-8.47c3.69-7.83,3.58-16.69-0.35-24.36c-3.23-6.29-8.56-10.78-14.69-13.13
			c0.09,0.88,0.18,1.77,0.2,2.65c0.09,2.62-5.91,6.26-6.01,2.6c-0.06-2.31-0.46-4.57-0.54-6.87c-5.3-0.67-10.92,0.2-16.03,2.81
			c-12.59,6.46-18.21,21.29-13.09,34.44l2.35,6.06l-31.75,16.29c-1.03,2.1-4.71,4.51-5.46,2.81l-12.14,6.22
			c-0.33,1.02-0.67,2.09-0.98,3.05c-0.5,1.55-2.31,2.96-3.77,3.42c-1.46,0.47-2-0.42-1.58-1.73c0.18-0.58,0.35-1.19,0.57-1.79
			L95.9,190.75c-0.31,0.96-0.56,1.98-0.59,3.08c-0.09,2.27-5.94,6.12-5.82,2.82c0.03-0.98,0.23-1.93,0.51-2.88l-6.17,3.16
			c-0.1,0.5-0.19,1.03-0.25,1.54c-0.23,1.61-1.87,3.06-3.24,3.76l-0.13,0.06c0.37,1.43,0.41,2.94,0.2,4.5
			c-0.24,1.58-1.88,3.02-3.25,3.73c-0.92,0.47-2.7,0.78-2.5-0.86c0.39-2.7-0.37-5.13-2-7.28c-1.22-1.6,2.12-4.92,4.15-5.2
			l-1.91-2.93c-1.32-2.03-2.83-3.8-4.55-5.33c-0.67,0.91-1.46,1.72-2.27,2.5c-0.71,0.65-2.85,2.23-3.81,1.15
			c-1.01-1.1,0.79-3.03,1.5-3.68c0.8-0.73,1.16-1.52,1.34-2.5c-8.05-5.39-18.65-6.29-27.81-1.59
			c-13.51,6.94-18.86,23.56-11.93,37.07c2.49,4.86,6.27,8.77,10.86,11.34c0.22-0.35,0.42-0.74,0.63-1.13
			c0.79-1.38,2.47-2.8,4.16-2.74c1.67,0.03,1.46,1.83,0.88,2.9c-0.52,0.95-1.07,1.92-1.59,2.87c1.49,0.53,3.03,0.95,4.64,1.25
			l9.22,1.69l-4.02,8.44c-3.69,7.82-3.57,16.72,0.35,24.35c2.1,4.09,5.11,7.43,8.63,9.9c1.5-1.49,3.94-2.22,4.91-0.34l1.1,2.14
			c0.23,0.45,0.25,0.96,0.1,1.44c0.88,0.36,1.74,0.64,2.65,0.86c0,0,0,0,0.03-0.01c0.36-0.26,0.69-0.47,1.04-0.65
			c0.1-0.05,0.37-0.23,0.63-0.36c0.07-0.64-0.14-1.21-0.45-1.82c-0.58-1.28,1.66-3.68,3.53-4.43c-0.22-2.1,0.81-4.17,2.23-5.74
			c0.97-1.1,2.72-2.57,4.3-1.84c1.5,0.64,0.79,2.79-0.04,3.69c-0.59,0.66-0.59,0.83-0.21,1.72c0.78,1.74-1.54,4.22-3.57,4.74
			c0.05,2.07-1.18,4-2.85,5.54c5.02,0.49,10.24-0.41,15.06-2.88c12.1-6.21,17.81-20.11,13.53-33.09l-1.94-5.83l2.91-1.49
			c-0.56-0.36-0.83-1.07-0.65-2.2c0.65-3.77,3.9-6.57,7.46-7.55c4.53-1.23,3.68,4.74,0.26,5.68c-0.93,0.24-1.4,0.19-1.53,1.11
			c-0.02,0.05-0.04,0.1-0.05,0.15l6.81-3.49c0.01-0.21,0.08-0.4,0.13-0.59c-1.99-0.11-0.32-4.48,1.86-5.59
			c1.22-0.63,1.94-0.55,2.21-0.09c0.18-0.13,0.35-0.18,0.56-0.25c1.33-0.39,2.27,0.49,1.66,1.82c-0.27,0.58-0.45,1.16-0.61,1.72
			l25.65-13.16c0.41-2.59,1.04-5.14,2.04-7.59c0.6-1.52,2.22-2.92,3.77-3.43c1.39-0.43,2.02,0.41,1.53,1.72
			c-0.85,2.05-1.35,4.21-1.71,6.41l33.99-17.44c-0.06-1.54-0.07-3.11,0.04-4.7c0.11-2.08,5.87-6.04,5.67-2.95
			c-0.07,1.57-0.04,3.13,0.03,4.7l39.01-20.02l3.6,4.97c1.13,1.56,2.41,2.96,3.81,4.19c1.38-1.8,4.25-3.19,5.25-1.24
			c1.05,2.05,1.98,4.07,2.44,6.25c7.28,3.09,15.77,2.97,23.28-0.89c13.51-6.93,18.86-23.56,11.93-37.07
			C278.58,145.19,271.42,139.9,262.91,138.33z M242.51,100.7c0.46-0.68,0.39-1.53,0.07-2.3c-0.94-2.38,4.72-6.7,5.85-3.85
			c0.8,2.01,0.18,4.51-0.89,6.27c-0.87,1.37-2.42,2.82-4.15,2.77C241.75,103.55,241.88,101.75,242.51,100.7z M97.9,253.16
			c0.04-0.39,0.04-0.79-0.05-1.19c-0.03-0.15-0.05-0.26-0.07-0.37c-0.12,0.71-0.21,1.39-0.31,2.14c-0.51,0.51-1.04,1.05-1.54,1.56
			c0.73-0.45,1.51-1.22,1.95-2.09c-0.24,1.18-1.15,2.25-2.22,2.91c-0.93,0.56-3.43,1.27-3.78-0.44c-0.42-2.09,0.75-3.82,2.47-4.94
			c1.05-0.7,3.21-1.2,3.76,0.41C98.35,251.83,98.22,252.51,97.9,253.16z M102.62,191.81c-0.17,0.53-0.34,1.06-0.51,1.59
			c-0.54,1.69-1.94,3.14-3.74,3.41c-1.55,0.2-2.86-1-2.34-2.59c0.17-0.53,0.34-1.06,0.51-1.6c0.55-1.69,1.94-3.14,3.79-3.4
			C101.84,189.03,103.13,190.22,102.62,191.81z M123.96,228.04c-4.18,2.15-2.59-3.87,0.12-5.27
			C128.26,220.62,126.67,226.64,123.96,228.04z M160.89,187.62c-4.16,2.13-1.16-3.36,0.92-4.42
			C165.95,181.07,162.93,186.57,160.89,187.62z M158.21,177.29c-4.13,2.12-0.57-3.14,1.23-4.06
			C163.55,171.12,159.99,176.37,158.21,177.29z M243.76,167.08c-1.21,2.6-1.27,5.22-0.46,7.99c0.6,2.03-5.02,6.25-5.67,4.04
			c-1.03-3.51-0.6-6.91,0.94-10.21c0.72-1.5,2.24-2.88,3.76-3.43C243.68,165.03,244.36,165.81,243.76,167.08z M232.76,131.33
			c-4.22,2.16-5.1-2.87-1.66-4.64C235.33,124.52,236.21,129.56,232.76,131.33z"/>
	</g>
	<g class="st7">
		<path class="st10" d="M231.84,57.27c1.42-10.79-1.97-22.08-10.26-30.36c-14.14-14.14-37.07-14.14-51.22,0
			c-13.25,13.25-14.08,34.2-2.51,48.43l-99.17,99.18c-14.22-11.57-35.18-10.74-48.43,2.51c-14.14,14.14-14.14,37.07,0,51.22
			c8.29,8.28,19.58,11.68,30.36,10.25c-1.42,10.78,1.97,22.08,10.25,30.36c14.14,14.15,37.07,14.15,51.22,0
			c12.79-12.79,13.97-32.73,3.64-46.9l99.58-99.58c14.17,10.34,34.11,9.15,46.9-3.64c14.14-14.14,14.14-37.07,0-51.22
			C253.92,59.24,242.63,55.85,231.84,57.27z"/>
		<path class="st9" d="M232.82,64.68l-9.67,1.3l1.27-9.7c1.16-8.96-1.77-17.72-8.13-24.08c-5.22-5.22-11.95-7.97-18.78-8.35
			c0.37,0.85,0.74,1.7,1.03,2.57c0.93,2.57-3.87,8.11-5.14,4.51c-0.79-2.28-1.91-4.4-2.73-6.65c-5.49,1.04-10.78,3.68-15.02,7.92
			c-10.44,10.44-11.29,26.97-1.99,38.39l4.26,5.27l-26.33,26.33c-0.34,2.41-3.23,5.99-4.53,4.53L137,116.79c0,1.11,0,2.28,0,3.34
			c0,1.7-1.35,3.68-2.65,4.61c-1.3,0.93-2.12,0.21-2.12-1.22c0-0.64-0.03-1.3,0-1.96l-48.56,48.55c0,1.06,0.08,2.15,0.4,3.26
			c0.64,2.28-3.95,7.97-4.87,4.66c-0.29-0.98-0.4-1.99-0.43-3.02l-5.11,5.11c0.05,0.53,0.13,1.08,0.24,1.61
			c0.29,1.67-0.87,3.63-2.01,4.77l-0.11,0.11c0.82,1.3,1.35,2.78,1.64,4.4c0.27,1.64-0.9,3.6-2.04,4.74
			c-0.77,0.77-2.44,1.64-2.76-0.05c-0.48-2.81-2.01-4.98-4.32-6.6c-1.72-1.19,0.53-5.56,2.46-6.49l-2.83-2.3
			c-1.96-1.59-4.03-2.86-6.23-3.84c-0.37,1.11-0.9,2.18-1.46,3.21c-0.5,0.87-2.12,3.13-3.41,2.36c-1.36-0.77-0.19-3.26,0.31-4.13
			c0.56-0.98,0.66-1.88,0.53-2.91c-9.73-2.78-20.53-0.29-28.13,7.31c-11.21,11.2-11.21,29.43,0,40.63c4.03,4.03,9.03,6.7,14.41,7.79
			c0.1-0.42,0.19-0.87,0.26-1.32c0.34-1.61,1.56-3.58,3.26-4.05c1.67-0.5,2.04,1.35,1.8,2.59c-0.21,1.11-0.45,2.26-0.66,3.37
			c1.64,0.05,3.31-0.03,5.01-0.24l9.69-1.27l-1.3,9.67c-1.17,8.95,1.8,17.75,8.13,24.08c3.39,3.39,7.45,5.75,11.73,7.07
			c1.01-1.96,3.21-3.47,4.77-1.91l1.78,1.78c0.37,0.37,0.56,0.87,0.56,1.4c0.98,0.08,1.93,0.08,2.92,0c0,0,0,0,0.03-0.03
			c0.27-0.37,0.53-0.69,0.82-0.98c0.08-0.08,0.29-0.34,0.51-0.56c-0.14-0.66-0.53-1.17-1.03-1.67c-0.98-1.09,0.48-4.19,2.09-5.53
			c-0.9-2.01-0.53-4.4,0.37-6.41c0.61-1.4,1.88-3.41,3.68-3.2c1.7,0.16,1.67,2.52,1.14,3.68c-0.37,0.85-0.32,1.01,0.34,1.78
			c1.33,1.48-0.18,4.69-2.04,5.85c0.72,2.04,0.1,4.35-1.06,6.41c5.14-1.11,10.04-3.68,14.04-7.68c10.04-10.04,11.26-25.67,2.86-37.2
			l-3.79-5.17l2.41-2.41c-0.67-0.18-1.17-0.79-1.35-1.98c-0.56-3.95,1.77-7.77,5.01-9.89c4.11-2.68,5.17,3.52,2.07,5.56
			c-0.85,0.53-1.33,0.64-1.16,1.59c0,0.05,0,0.11,0,0.16l5.64-5.64c-0.05-0.21-0.05-0.43-0.05-0.63c-2.01,0.53-1.75-4.35,0.05-6.15
			c1.01-1.01,1.75-1.16,2.17-0.79c0.13-0.19,0.29-0.29,0.48-0.43c1.19-0.82,2.41-0.24,2.23,1.27c-0.08,0.66-0.08,1.3-0.05,1.91
			l21.27-21.27c-0.42-2.7-0.61-5.43-0.4-8.19c0.11-1.7,1.27-3.6,2.65-4.61c1.24-0.87,2.14-0.24,2.07,1.22
			c-0.18,2.3,0,4.61,0.35,6.91l28.19-28.19c-0.56-1.51-1.06-3.07-1.46-4.69c-0.56-2.09,3.89-7.87,4.69-4.74
			c0.42,1.59,0.95,3.12,1.54,4.66l32.35-32.35l5.17,3.79c1.62,1.19,3.34,2.17,5.11,2.94c0.79-2.22,3.2-4.53,4.82-2.91
			c1.69,1.69,3.26,3.41,4.42,5.43c8.21,0.74,16.61-2.09,22.84-8.32c11.2-11.21,11.2-29.43,0-40.64
			C250.57,66.48,241.77,63.51,232.82,64.68z M200.52,33.82c0.24-0.82-0.11-1.64-0.66-2.31c-1.7-2.06,2.54-8.16,4.58-5.69
			c1.43,1.75,1.62,4.42,1.11,6.51c-0.43,1.64-1.51,3.58-3.23,4.08C200.68,36.89,200.23,35.06,200.52,33.82z M105.61,231.47
			c-0.08-0.4-0.21-0.8-0.43-1.16c-0.08-0.14-0.13-0.24-0.18-0.35c0.11,0.74,0.24,1.46,0.37,2.23c-0.34,0.66-0.69,1.38-1.03,2.04
			c0.59-0.69,1.11-1.7,1.27-2.7c0.13,1.25-0.42,2.6-1.27,3.6c-0.74,0.85-2.99,2.36-3.89,0.77c-1.09-1.93-0.48-4.03,0.87-5.69
			c0.82-1.04,2.81-2.23,3.87-0.8C105.64,230.01,105.71,230.73,105.61,231.47z M90.69,169.03c0,0.58,0,1.16,0,1.75
			c0,1.85-0.93,3.74-2.62,4.58c-1.48,0.69-3.15-0.08-3.15-1.83c0-0.58,0-1.16,0-1.75c0-1.85,0.93-3.74,2.68-4.58
			C89.02,166.51,90.69,167.28,90.69,169.03z M123.46,198.2c-3.47,3.47-3.82-3.02-1.56-5.27
			C125.37,189.45,125.71,195.95,123.46,198.2z M147.23,146.25c-3.45,3.45-2.23-2.97-0.51-4.69
			C150.16,138.11,148.92,144.55,147.23,146.25z M141.26,136.84c-3.42,3.42-1.56-2.94-0.08-4.42
			C144.6,129,142.75,135.36,141.26,136.84z M222.99,99.36c-0.37,2.97,0.4,5.59,2.09,8.08c1.25,1.83-2.99,7.82-4.34,5.83
			c-2.14-3.15-2.81-6.68-2.33-10.44c0.24-1.72,1.3-3.58,2.65-4.61C222.25,97.34,223.18,97.9,222.99,99.36z M200.63,67.36
			c-3.49,3.49-5.99-1.22-3.13-4.08C201,59.78,203.49,64.49,200.63,67.36z"/>
	</g>
	<path class="st11" d="M271.58,133.45c-2.06,7.68-6.63,14.76-13.56,19.86c-14.61,10.68-34.51,8.8-46.9-3.56l-86.62,63.43
		l90.81-90.81c14.16,10.34,34.13,9.14,46.91-3.63c1.99-1.99,3.71-4.16,5.13-6.48c0.75,6.56-0.38,13.15-3.15,19.03
		C266.71,131.73,269.18,132.44,271.58,133.45z"/>
	<path class="st11" d="M85.76,279.48c-9.78,6.71-21.81,7.94-32.34,4.31c-2.88-2.7-5.39-5.92-7.3-9.67
		c-5.13-9.96-4.91-21.28-0.45-30.68c-7-1.27-13.56-4.68-18.7-9.93c7.19,4.42,15.59,6.07,23.64,4.98
		c-1.42,10.79,1.99,22.1,10.26,30.38C67.77,275.73,76.77,279.29,85.76,279.48z"/>
</g>
<g class="st0">
	<path class="st1" d="M224.64,195.22c-20.86,20.5-52.69,49.73-73.92,68.97c-3.37,3.05-15.89-29.82-20.32-30.42l-2.38-80.15
		l-24.13,20.22l-18.36,3.18l-23.82-3.63l-2.41-5.92l-9.1-8.62l36.2-59.78l-0.88-11.72l16.22-25.93l8.99-5.99l-5.03-8.87l4.55-29.63
		L137,47.05v7.42l1.68-8.38l5.03-37.17l20.27,27.22l5.09,19.31l-0.75,6.19l20.6,34.09L224.64,195.22z"/>
	<path class="st12" d="M124.59,97.26c0,2.9-2.38,5.27-5.28,5.27c-2.89,0-5.26-2.37-5.26-5.27c0-2.9,2.37-5.27,5.26-5.27
		C122.22,91.99,124.59,94.35,124.59,97.26z"/>
	<polygon class="st13" points="52.87,158.06 57.8,163.1 59.78,163.1 62.02,166.63 62.9,162.35 69.83,160.43 69.83,152.47 
		65.54,148.92 58.61,148.92 	"/>
	<polygon class="st14" points="110.27,16.93 105.75,46.52 110.73,55.45 132.28,52.23 136.98,54.46 136.98,47.02 	"/>
	<polygon class="st14" points="128.01,153.63 145.05,148.92 129.95,220.47 	"/>
	<polygon class="st6" points="224.64,182.79 145.04,246.6 128.01,213.76 128.01,233.04 142.47,272.75 230.64,201.51 	"/>
	<path class="st15" d="M162.76,268.29c0,13.65-7.21,24.71-16.11,24.71c-8.89,0-16.1-11.06-16.1-24.71c0-13.66,7.21-24.72,16.1-24.72
		C155.56,243.57,162.76,254.63,162.76,268.29z"/>
	<path class="st16" d="M158.72,268.29c0,13.65-7.21,24.71-16.11,24.71c-8.89,0-16.11-11.06-16.11-24.71
		c0-13.66,7.22-24.72,16.11-24.72C151.5,243.57,158.72,254.63,158.72,268.29z"/>
	<path class="st15" d="M144.24,289.78c-0.49,0.1-1.09,0.19-1.69,0.19c-7.08,0-13.06-9.86-13.06-21.73
		c0-11.76,5.98-21.63,13.06-21.63c0.6,0,1.2,0.1,1.69,0.21c-6.38,1.29-11.46,10.56-11.46,21.43
		C132.78,279.21,137.86,288.48,144.24,289.78z"/>
	<polygon class="st14" points="99.39,167.48 124.59,136.67 133.85,136.67 	"/>
</g>
<g class="st0">
	<path class="st17" d="M293.96,218.47c0.4,4.05-2.54,7.33-6.6,7.33H13.56c-4.05,0-7-3.28-6.55-7.33l9.13-84.38
		c0.44-4.02,4.12-7.33,8.17-7.33h252.78c4.01,0,7.7,3.31,8.1,7.33L293.96,218.47z"/>
	<path class="st18" d="M184.4,176.29c2.28-1.75,3.76-4.5,3.76-7.61c0-5.29-4.29-9.58-9.59-9.58c-4.95,0-9.04,3.76-9.54,8.59h-37.12
		c-0.5-4.83-4.58-8.59-9.53-8.59c-5.3,0-9.59,4.29-9.59,9.58c0,3.1,1.48,5.85,3.76,7.61c-2.28,1.75-3.76,4.5-3.76,7.6
		c0,5.3,4.29,9.59,9.59,9.59c4.78,0,8.74-3.51,9.45-8.1h37.27c0.72,4.59,4.68,8.1,9.46,8.1c5.3,0,9.59-4.29,9.59-9.59
		C188.17,180.79,186.68,178.04,184.4,176.29z"/>
	<path class="st1" d="M258.13,126.75H42.84c4.71-7.85,12.37-18.01,17.38-18.01c2.29,0,5.97,4.13,8.29,3.68
		c4.17-0.92,4.6-7.81,7.37-10.13c5.05-3.68,10.13,2.76,14.73,0.48c4.17-2.32,1.37-6,3.21-8.77c1.84-2.76,11.05-5.53,14.29-4.6
		c3.68,0.92,5.97,5.05,9.21,7.36c5.97-4.16,0-10.57,3.25-15.21c1.36-2.28,17.93-7.37,22.54-6.89c2.76,0.92,5.53,6.45,8.77,6
		c3.68-0.48,1.36-4.16,4.12-5.08c5.53-2.76,27.63,2.76,25.78,11.97c6.45,1.36,13.34-1.84,18.42,3.2c3.68,3.68,0.92,7.85,3.25,10.17
		c5.04,6.41,8.72-1.4,11.49-2.32c4.6-0.48,10.61,2.76,12.89,6.89c0.92,1.84-0.92,5.08,0,6.48c2.29,2.28,8.77,1.84,11.49,1.36
		c6.92-0.48,9.69-3.21,14.73,2.32c3.68,3.68,1.84,6.41,3.24,9.65C257.57,125.83,257.87,126.31,258.13,126.75z"/>
	<g class="st7">
		<path class="st19" d="M251.82,126.75h-46.88c-1.21-1.11-2.47-2.1-3.61-3.02c-3.68-2.76-6.22-1.4-10.79-0.48
			c-2.91,0.59-4.64,1.62-5.75,3.5H162.4c-0.15-0.15-0.3-0.33-0.44-0.52c-2.5-2.98-3.42-6.89-5.75-9.87c-2.28-3.46-9.15-5.26-9.61-1
			c0.22,4.38,1.8,7.45-0.96,10.66c-0.26,0.26-0.59,0.52-1,0.74h-37.16c-1.51-2.76-2.87-6.04-6.03-6.04c-1.84,0-8.77,4.38-10.13,6
			l-0.04,0.04h-42.1c0.11-2.06,3.54-3.61,4.6-5.27c1.7-2.76,1.22-4.75,4.76-5.97c2.76-1.07,4.75-0.33,7.22,1.07
			c3.24,1.84,4.46,1.69,7.99,0.15c3.21-1.55,3.83-3.06,5.2-6.15c0.63-1.66,1.84-3.98,4.01-4.13c2.13-0.15,5.97,2.14,7.96,2.91
			c0.66,0.26,1.33,0.55,1.99,0.88c3.16,0.18,5.37-0.44,6.62-4.71c0.59-2.47,2.62-7.7,5.2-8.62c1.4-0.29,4.01,1.4,5.53,2.03
			c3.54,1.36,7.37,10.42,11.67,5.97c1.84-1.99,1.22-5.97,2.62-8.43c0.8-1.36,1.73-2.69,2.73-4.05c-1.04-2.95-1.84-7.84,0.33-9.46
			c2.61-2.25,8.17-3.46,11.93-4.31c3.45,0,3.53,5.85,3.31,8.54c2.47,0.33,5.23,3.5,6.56,4.83c2.69,2.98,4.71,2.36,6.96,1.18
			c-0.73-1.07-1.29-2.06-1.58-2.73c-1.25-2.76,0.3-2.76,2.29-4.27c1.4-1.07,2.36-2.61,2.73-4.35v-0.04
			c2.42-3.62,6.88,1.18,9.54,2.06c2.17,0.63,3.55,0.84,5.7,3.61c1.01,1.87,0.34,2.51,2,3.17c1.69,0.74,3.53,1.07,5.37,1.36
			c3.51,0.48,6.74-0.92,10.13-0.63c3.21,0.33,3.06,3.09,4.13,6.15c1.07,2.62,0.97,3.66,2.08,6.13c0.18,0.48,1.31,2.49,1.45,2.86
			c3.42,0.4,7.52,0.33,10.28-0.22c2.32-0.48,2.61-2.32,4.9-3.09c7.84-3.06,9.14,4.14,9,10.67c-0.06,2.82,8.35,3.62,10.96,3.62
			c3.24,0,7.51-2.47,10.28-1.84c2.91,0.63,5.85,4.9,6.01,7.66C251.68,124.47,251.75,125.61,251.82,126.75z"/>
	</g>
</g>
<g class="st0">
	<path class="st20" d="M241.61,15.62l40.69,40.69c16.45,16.45-20.53,80.11-82.59,142.17c-62.06,62.06-125.73,99.04-142.17,82.59
		l-40.7-40.69c7.84,7.84,26.55,3.5,50.72-10.03c26.29-14.7,59.08-40.26,91.42-72.6c32.34-32.34,57.9-65.13,72.6-91.42
		C245.11,42.16,249.45,23.45,241.61,15.62z"/>
	<path class="st21" d="M241.61,15.62c7.84,7.84,3.5,26.55-10.03,50.72c-26.29,14.69-59.07,40.25-91.42,72.6
		c-32.35,32.35-57.9,65.13-72.6,91.42c-24.18,13.53-42.88,17.87-50.72,10.03C0.4,223.93,37.38,160.26,99.44,98.2
		C161.5,36.14,225.16-0.83,241.61,15.62z"/>
	<path class="st22" d="M99.44,98.2c-62.06,62.06-99,125.77-82.52,142.25c16.48,16.48,80.18-20.46,142.25-82.52
		c62.06-62.06,99-125.76,82.52-142.25C225.2-0.8,161.5,36.14,99.44,98.2z M155.52,154.28C88.14,221.67,31.5,247.75,20.56,236.81
		c-10.94-10.94,15.14-67.57,82.52-134.96C170.47,34.47,227.1,8.39,238.04,19.33C248.98,30.27,222.91,86.9,155.52,154.28z"/>
	<path class="st23" d="M249.32,92.8l1.75,32.82l0.69,13.23c-0.51,0.73-1.06,1.43-1.57,2.15c-13.67,18.27-30.67,37.89-50.14,57.36
		c-62.06,62.06-125.73,99.04-142.17,82.59l-40.7-40.69c7.84,7.84,26.55,3.5,50.72-10.03c26.29-14.69,59.07-40.25,91.42-72.6
		c19.47-19.47,36.47-39.08,50.13-57.35c0.62-0.84,1.21-1.64,1.82-2.41l7.77-1.06L249.32,92.8z"/>
	<path class="st24" d="M181.89,175.01c3.35,3.34,3.35,8.77,0,12.12c-3.35,3.35-8.77,3.35-12.12,0c-3.34-3.35-3.34-8.78,0-12.12
		C173.12,171.66,178.54,171.66,181.89,175.01z"/>
	<path class="st24" d="M150.75,203.23c3.35,3.35,3.56,8.56,0.47,11.65c-3.08,3.08-8.3,2.87-11.65-0.48
		c-3.35-3.34-3.56-8.56-0.47-11.65C142.19,199.67,147.4,199.88,150.75,203.23z"/>
	<path class="st24" d="M112.12,232.66c3.35,3.35,3.63,8.49,0.63,11.5c-3,3.01-8.15,2.72-11.5-0.62c-3.34-3.35-3.62-8.5-0.62-11.5
		C103.63,229.04,108.77,229.32,112.12,232.66z"/>
	<path class="st24" d="M211.2,145.7c3.34,3.35,3.34,8.78,0,12.12c-3.35,3.35-8.77,3.35-12.12,0c-3.35-3.34-3.35-8.77,0-12.12
		C202.42,142.36,207.85,142.36,211.2,145.7z"/>
	<path class="st25" d="M171.32,131.39l-39.19,39.2c-6.02,6.02-6.02,15.86,0,21.88l32.81,32.82c6.06,6.05,15.87,6.01,21.88,0
		l39.2-39.2c6.05-6.05,6.05-15.83,0-21.88l-32.82-32.82C187.18,125.37,177.38,125.33,171.32,131.39z M218.72,171.5
		c2.05,2.04,2.05,5.25,0,7.29l-39.2,39.2c-2.01,2.01-5.25,2.04-7.29,0l-32.82-32.82c-2.01-2.01-2-5.29,0-7.29l39.2-39.2
		c2.04-2.04,5.28-2,7.29,0L218.72,171.5z"/>
	<path class="st26" d="M214.54,142.37c1.98,1.98,1.98,5.2,0,7.18l-36.01,36.01c-1.98,1.98-5.2,1.98-7.18,0l0,0
		c-1.98-1.98-1.98-5.2,0-7.18l36.01-36.01C209.34,140.39,212.55,140.39,214.54,142.37L214.54,142.37z"/>
	<polygon class="st24" points="249.32,92.8 257.52,130.46 251.76,138.86 	"/>
</g>
<g>
	<polygon class="st27" points="47.63,124.06 47.63,248.12 263.68,248.12 263.68,126.55 155.65,49.18 	"/>
	<rect x="44.43" y="217.47" class="st28" width="222.43" height="36.53"/>
	<rect x="44.44" y="177.11" class="st28" width="222.44" height="36.5"/>
	<rect x="44.44" y="136.74" class="st28" width="222.44" height="36.5"/>
	<polygon class="st28" points="265.07,132.86 46.23,132.86 98.2,96.35 213.09,96.35 	"/>
	<polygon class="st28" points="207.61,92.5 103.69,92.5 155.66,55.98 	"/>
	<polygon class="st29" points="291.91,137.61 284.2,146.31 265.07,132.86 213.09,96.35 207.61,92.5 155.66,55.98 103.69,92.5 
		98.2,96.35 46.23,132.86 27.1,146.31 19.55,137.49 44.44,119.54 76.62,96.35 81.97,92.5 132.62,55.98 155.66,39.38 178.7,55.98 
		229.35,92.5 234.68,96.35 266.88,119.56 	"/>
	<polygon class="st30" points="266.95,136.75 266.95,166.98 263.77,164.75 223.94,136.75 218.43,132.86 216.07,131.21 
		210.59,127.36 166.47,96.34 160.98,92.49 158.62,90.83 156.26,92.49 150.78,96.34 106.66,127.36 101.17,131.21 98.81,132.86 
		93.31,136.75 49.21,167.74 47.72,168.79 44.51,171.02 44.51,136.75 47.72,136.75 47.72,132.86 46.31,132.86 47.72,131.86 
		98.3,96.34 103.78,92.49 155.74,55.99 207.71,92.49 213.19,96.34 263.77,131.89 265.15,132.86 263.77,132.86 263.77,136.75 	"/>
	<path class="st31" d="M205.4,196.07V254h-99.51v-57.93c0-27.49,22.28-49.77,49.77-49.77c13.73,0,26.16,5.56,35.17,14.57
		C199.84,169.88,205.4,182.31,205.4,196.07z"/>
	<path class="st32" d="M201.33,198.43V254h-95.44v-55.57c0-26.36,21.36-47.73,47.73-47.73c13.17,0,25.09,5.34,33.73,13.98
		C195.99,173.32,201.33,185.24,201.33,198.43z"/>
	<path class="st33" d="M76.51,254H30.56c-0.12-0.19-0.23-0.36-0.35-0.54c0.04,0.19,0.09,0.36,0.13,0.54H16.81
		c-2.02-4.47-4.95-8.6-8.1-11.56c2.76,0.26,5.87,0.99,8.91,2.13c-1.74-6.41-4.57-13.05-8.54-17.77c6.66,2.87,13.26,5.81,18.82,10.09
		c-0.69-12.9,1.23-26.76,8.35-36.59c-0.28,8.61,2.12,18.45,5.21,27.37c2.09,6.01,4.48,11.6,6.61,16.1c0.13-0.26,0.28-0.53,0.42-0.79
		c3.55-6.38,8.67-12.14,14.54-16.29c-2.21,7.2-2.76,13.68-1.37,20.57c4.23-4.44,9.37-7.11,15.4-7.68
		C74.39,243.71,74.83,249.1,76.51,254z"/>
	<path class="st33" d="M281.88,254h-52.7c5.76-4.6,10.6-10.68,11.97-17.56c2.04,3.22,3.27,6.8,3.82,10.51
		c5.22-6.47,9.04-13.95,11.4-22.1c5.44,8.95,8.14,18.21,7.98,28.35c9.9-11.48,12.09-27.77,14.4-42.53
		C283.85,223.89,286.12,240.54,281.88,254z"/>
</g>
</svg>
